PathFileType	4	(X/Y/Z)	G:/My Drive/Project Folder - EPSRC SCI-FES/EPSRC-SCI-FES/Technical/Trial Tests/04122019 - Marker Volunteer01/Rosti Data/New Session 101.trc	
DataRate	CameraRate	NumFrames	NumMarkers	Units	OrigDataRate	OrigDataStartFrame	OrigNumFrames	
100.00	100.00	18	14	mm	100.00	211	337	
Frame#	Time	C7			PX			T8			IJ			SC			AC			AI			TS			AA			GH			LE			ME			US			RS			
		X1	Y1	Z1	X2	Y2	Z2	X3	Y3	Z3	X4	Y4	Z4	X5	Y5	Z5	X6	Y6	Z6	X7	Y7	Z7	X8	Y8	Z8	X9	Y9	Z9	X10	Y10	Z10	X11	Y11	Z11	X12	Y12	Z12	X13	Y13	Z13	X14	Y14	Z14	

211	2.100	673.36707	-15.17164	1538.91577	447.26584	-35.57830	1290.48596	748.03430	-7.32465	1324.24231	512.85846	-37.16278	1433.43079	516.54620	-12.31999	1441.92017	584.58374	131.73979	1485.78186	713.60785	70.22920	1462.59839	745.04578	74.99220	1344.31995	654.10657	183.29344	1443.03076	614.71490	194.42026	1457.59424	542.83466	283.15039	1184.33069	508.35666	200.91385	1147.59692	451.68796	371.01929	935.61267	397.39679	406.90317	982.63269 
212	2.110	673.57214	-15.11551	1538.86218	447.41876	-35.54964	1290.50513	748.17548	-7.30509	1324.19238	513.01459	-37.12998	1433.46057	516.73462	-12.26716	1441.94739	584.80365	131.78609	1485.76038	713.78571	70.24297	1462.54382	745.20636	75.01237	1344.26965	654.31177	183.32793	1442.98926	614.94952	194.48997	1457.58984	542.98682	283.17862	1184.32837	508.48892	200.99905	1147.62268	451.74899	371.11124	935.65369	397.43872	406.80664	982.63574 
213	2.120	673.77783	-15.06570	1538.81689	447.57404	-35.52067	1290.52258	748.32758	-7.28426	1324.14258	513.16296	-37.10634	1433.49146	516.92444	-12.21345	1441.98145	585.01318	131.82753	1485.74231	713.97400	70.25907	1462.48108	745.36194	75.02991	1344.22791	654.50488	183.37030	1442.94580	615.17242	194.54710	1457.58740	543.13538	283.23618	1184.32007	508.62262	201.08217	1147.64832	451.82974	371.21817	935.69800	397.48694	406.69321	982.62744 
214	2.130	673.98724	-15.02527	1538.78223	447.73132	-35.49043	1290.53857	748.48132	-7.27165	1324.08948	513.30621	-37.09285	1433.52380	517.11621	-12.16159	1442.02100	585.21362	131.86433	1485.72925	714.17279	70.28101	1462.42041	745.51166	75.04548	1344.19250	654.68707	183.41963	1442.90979	615.38379	194.59079	1457.58728	543.28491	283.31912	1184.31702	508.75616	201.16209	1147.67432	451.92981	371.33856	935.74713	397.56949	406.65472	982.64154 
215	2.140	674.20361	-14.99695	1538.76025	447.88998	-35.45869	1290.55225	748.63232	-7.27261	1324.03381	513.44690	-37.08957	1433.55737	517.30908	-12.11399	1442.06384	585.40631	131.89713	1485.72290	714.37384	70.30293	1462.37390	745.65601	75.06012	1344.16113	654.86212	183.46927	1442.89087	615.58380	194.62039	1457.58911	543.44061	283.41550	1184.32983	508.88797	201.23792	1147.70129	452.04431	371.46686	935.80255	397.68768	406.70236	982.68762 
216	2.150	674.42834	-14.98151	1538.75085	448.04965	-35.42572	1290.56104	748.78278	-7.28589	1323.97974	513.58722	-37.09519	1433.59143	517.50140	-12.07197	1442.10730	585.59283	131.92708	1485.72546	714.56915	70.32047	1462.34509	745.79633	75.07493	1344.13220	655.03400	183.51192	1442.89160	615.77246	194.63504	1457.59106	543.60437	283.51303	1184.36328	509.01703	201.30888	1147.72937	452.16327	371.59305	935.86414	397.82208	406.80576	982.75909 
217	2.160	674.65924	-14.97641	1538.74939	448.21005	-35.39204	1290.56287	748.93524	-7.30171	1323.93188	513.72961	-37.10706	1433.62451	517.69104	-12.03543	1442.14893	585.77515	131.95570	1485.73840	714.75574	70.33759	1462.32776	745.93488	75.09062	1344.10437	655.20679	183.54645	1442.90698	615.94977	194.63400	1457.59009	543.77246	283.60303	1184.41443	509.14325	201.37439	1147.75830	452.27252	371.70367	935.93024	397.96024	406.94849	982.84949 
218	2.170	674.89111	-14.97698	1538.74902	448.37094	-35.35805	1290.55725	749.09308	-7.31032	1323.89380	513.87640	-37.12146	1433.65503	517.87628	-12.00306	1442.18713	585.95544	131.98447	1485.76233	714.93903	70.35673	1462.31274	746.07404	75.10728	1344.07678	655.38348	183.57660	1442.92834	616.11664	194.61757	1457.58362	543.93982	283.68121	1184.47351	509.26752	201.43396	1147.78784	452.35587	371.78333	935.99738	398.11032	407.13431	982.95135 
219	2.180	675.11719	-14.97831	1538.74231	448.53177	-35.32352	1290.54614	749.25873	-7.31250	1323.86865	514.03003	-37.13414	1433.68152	518.05585	-11.97299	1442.22095	586.13635	132.01447	1485.79712	715.12543	70.37292	1462.29321	746.21649	75.12418	1344.04883	655.56506	183.60603	1442.94849	616.27606	194.58846	1457.57178	544.10419	283.74747	1184.52881	509.39136	201.48723	1147.81750	452.39856	371.81796	936.06140	398.28812	407.36462	983.05322 
220	2.190	675.33105	-14.97667	1538.72424	448.69110	-35.28767	1290.53369	749.42651	-7.31356	1323.85303	514.19281	-37.14069	1433.70288	518.22955	-11.94350	1442.25000	586.32019	132.04625	1485.84094	715.31439	70.38124	1462.26819	746.36505	75.13999	1344.02075	655.75128	183.63477	1442.96399	616.43384	194.55240	1457.55750	544.26624	283.80399	1184.57153	509.51654	201.53406	1147.84656	452.39227	371.79971	936.11810	398.49142	407.61038	983.14380 
221	2.200	675.52887	-14.97049	1538.69336	448.84775	-35.24990	1290.52527	749.59119	-7.31103	1323.83594	514.36639	-37.13704	1433.71899	518.39813	-11.91374	1442.27454	586.50897	132.07941	1485.89099	715.50623	70.38345	1462.24487	746.52234	75.15310	1343.99292	655.94159	183.65900	1442.97290	616.59778	194.51735	1457.54651	544.42859	283.85312	1184.59912	509.64481	201.57462	1147.87451	452.34073	371.73242	936.16473	398.70178	407.81506	983.21606 
222	2.210	675.71173	-14.96096	1538.65198	449.00195	-35.21066	1290.52454	749.75262	-7.30072	1323.80725	514.55145	-37.12011	1433.73047	518.56348	-11.88360	1442.29517	586.70404	132.11281	1485.94348	715.70746	70.38287	1462.23279	746.69006	75.16223	1343.96594	656.13544	183.67281	1442.97534	616.77521	194.49075	1457.54370	544.59320	283.89502	1184.61438	509.77756	201.60939	1147.90100	452.26315	371.63351	936.20142	398.91006	407.95929	983.27368 
223	2.220	675.88654	-14.95160	1538.60669	449.15582	-35.17085	1290.53235	749.90961	-7.28751	1323.76831	514.74725	-37.08842	1433.73865	518.72803	-11.85333	1442.31250	586.90582	132.14481	1485.99536	715.92218	70.38068	1462.23206	746.86823	75.16693	1343.93982	656.33417	183.67151	1442.97400	616.97058	194.47772	1457.55225	544.76086	283.92944	1184.62231	509.91562	201.63925	1147.92590	452.19028	371.52979	936.23102	399.11786	408.06549	983.32874 
224	2.230	676.06415	-14.94644	1538.56592	449.31219	-35.13059	1290.54736	750.06354	-7.27116	1323.72937	514.95172	-37.04242	1433.74524	518.89484	-11.82299	1442.32690	587.11420	132.17378	1486.04382	716.14520	70.37673	1462.23438	747.05560	75.16767	1343.91455	656.54047	183.65582	1442.97168	617.18524	194.48120	1457.57239	544.93146	283.96030	1184.62964	510.05902	201.66530	1147.94910	452.15085	371.44644	936.25726	399.32578	408.16187	983.39154 
225	2.240	676.25500	-14.94748	1538.53650	449.47382	-35.08929	1290.56714	750.22302	-7.24428	1323.69824	515.16162	-36.98441	1433.75183	519.06653	-11.79229	1442.33850	587.32886	132.19920	1486.08728	716.36633	70.37210	1462.23047	747.25055	75.16576	1343.89014	656.75562	183.63339	1442.97034	617.41760	194.50227	1457.60266	545.10449	283.99689	1184.64197	510.20709	201.68881	1147.97058	452.16238	371.39941	936.28375	399.53214	408.26001	983.46100 
226	2.250	676.46484	-14.95383	1538.52209	449.64209	-35.04636	1290.58972	750.39276	-7.20593	1323.67529	515.37311	-36.91807	1433.75977	519.24548	-11.76065	1442.34753	587.54950	132.22174	1486.12598	716.57770	70.36890	1462.21594	747.45142	75.16296	1343.86633	656.97821	183.61340	1442.96997	617.66364	194.53989	1457.63965	545.28174	284.05002	1184.66272	510.35892	201.71109	1147.99036	452.22943	371.39383	936.31262	399.73645	408.35712	983.52972 
227	2.260	676.69318	-14.96239	1538.52197	449.81671	-35.00180	1290.61438	750.56366	-7.16695	1323.65576	515.58234	-36.84806	1433.76965	519.43298	-11.72742	1442.35449	587.77557	132.24274	1486.16113	716.77734	70.37017	1462.19177	747.65662	75.16109	1343.84351	657.20642	183.60011	1442.97009	617.91705	194.59018	1457.67932	545.46503	284.12131	1184.69031	510.51331	201.73341	1148.00854	452.34610	371.42557	936.34460	399.93961	408.44965	983.59357 
228	2.270	676.93311	-14.96865	1538.53149	449.99606	-34.95628	1290.64172	750.72662	-7.13632	1323.63293	515.78632	-36.77978	1433.78186	519.62946	-11.69213	1442.35999	588.00610	132.26350	1486.19409	716.96991	70.37746	1462.16467	747.86450	75.16170	1343.82178	657.43805	183.59439	1442.97083	618.17090	194.64726	1457.71716	545.65497	284.19922	1184.72205	510.66907	201.75687	1148.02502	452.50040	371.48520	936.37952	400.14331	408.54126	983.65198 
